<?xml version="1.0" encoding="UTF-8" standalone="no"?>
<!-- Created with Inkscape (http://www.inkscape.org/) -->

<svg
   xmlns:dc="http://purl.org/dc/elements/1.1/"
   xmlns:cc="http://creativecommons.org/ns#"
   xmlns:rdf="http://www.w3.org/1999/02/22-rdf-syntax-ns#"
   xmlns:svg="http://www.w3.org/2000/svg"
   xmlns="http://www.w3.org/2000/svg"
   xmlns:sodipodi="http://sodipodi.sourceforge.net/DTD/sodipodi-0.dtd"
   xmlns:inkscape="http://www.inkscape.org/namespaces/inkscape"
   width="256"
   height="256"
   id="svg2"
   version="1.1"
   inkscape:version="0.48.5 r10040"
   sodipodi:docname="volleyball2d.svg">
  <defs
     id="defs4" />
  <sodipodi:namedview
     id="base"
     pagecolor="#ffffff"
     bordercolor="#666666"
     borderopacity="1.0"
     inkscape:pageopacity="0.0"
     inkscape:pageshadow="2"
     inkscape:zoom="1.979899"
     inkscape:cx="117.64227"
     inkscape:cy="122.00654"
     inkscape:document-units="px"
     inkscape:current-layer="layer1"
     showgrid="true"
     inkscape:window-width="1366"
     inkscape:window-height="744"
     inkscape:window-x="0"
     inkscape:window-y="24"
     inkscape:window-maximized="1">
    <inkscape:grid
       type="xygrid"
       id="grid2985"
       empspacing="5"
       visible="true"
       enabled="true"
       snapvisiblegridlinesonly="true" />
  </sodipodi:namedview>
  <metadata
     id="metadata7">
    <rdf:RDF>
      <cc:Work
         rdf:about="">
        <dc:format>image/svg+xml</dc:format>
        <dc:type
           rdf:resource="http://purl.org/dc/dcmitype/StillImage" />
        <dc:title />
      </cc:Work>
    </rdf:RDF>
  </metadata>
  <g
     inkscape:label="Layer 1"
     inkscape:groupmode="layer"
     id="layer1"
     transform="translate(0,-796.36218)">
    <rect
       style="fill:#e6e4e2;fill-opacity:1"
       id="rect3754"
       width="255"
       height="255"
       x="0"
       y="1"
       transform="translate(0,796.36218)" />
    <path
       sodipodi:nodetypes="ccsc"
       inkscape:connector-curvature="0"
       id="path3822"
       d="m 237.5,964.86218 c -26.25,3.75 -48.75,3.75 -75,0 0,-20.71068 16.78932,-37.5 37.5,-37.5 20.71068,0 37.5,16.78932 37.5,37.5 z"
       style="fill:#ff0000;fill-opacity:1;stroke:none" />
    <path
       style="fill:#000000;stroke:#000000;stroke-opacity:1"
       d="m 79.50669,929.57408 c -0.34794,-0.049 -1.39174,-0.1871 -2.31956,-0.3066 -4.42696,-0.5706 -9.08682,-1.7803 -11.72148,-3.0429 -0.81556,-0.3909 -1.85872,-0.7741 -2.31812,-0.8518 -0.92914,-0.1569 -5.29952,-2.344 -7.87185,-3.9393 -2.84043,-1.7615 -5.61207,-3.9677 -8.09253,-6.4416 -1.30907,-1.3056 -2.45608,-2.3738 -2.54889,-2.3738 -0.24467,0 -3.931,-4.387 -5.3467,-6.363 -2.63043,-3.6714 -6.06954,-10.1902 -6.37725,-12.088 -0.11085,-0.6837 -0.0403,-0.5839 0.37223,0.5271 2.36385,6.3656 8.01171,14.7364 12.37967,18.3481 0.86983,0.7193 2.05665,1.7958 2.63738,2.3923 1.24154,1.2753 3.49237,2.9997 3.79412,2.9068 0.11598,-0.036 0.14289,0 0.0598,0.086 -0.55595,0.5559 9.31347,6.0927 11.80163,6.6207 1.17594,0.2495 1.47341,0.2351 2.98517,-0.1445 1.66414,-0.4179 1.68716,-0.4181 2.58904,-0.014 0.50048,0.2245 1.46523,0.538 2.1439,0.6967 0.67867,0.1587 1.29546,0.3543 1.37065,0.4347 0.24171,0.2584 -1.93412,-0.1414 -3.13176,-0.5754 -0.63788,-0.2312 -1.30212,-0.4228 -1.47609,-0.4259 -0.64317,-0.011 -2.95216,0.5113 -2.95216,0.6682 0,0.4311 4.17091,1.7747 7.80215,2.5134 4.18777,0.8519 7.43436,1.133 11.8005,1.0217 5.81651,-0.1483 11.00257,-1.147 16.87769,-3.2501 2.41949,-0.8662 7.83106,-3.4051 8.32933,-3.908 0.11598,-0.117 -0.54826,0.1652 -1.47608,0.6271 -5.58451,2.7805 -12.86209,4.682 -19.2418,5.0273 -1.47378,0.08 -2.58315,0.059 -2.58315,-0.048 0,-0.1033 0.68796,-0.1927 1.5288,-0.1987 2.08626,-0.015 4.8639,-0.2617 5.46322,-0.4853 0.27161,-0.1014 0.96829,-0.2527 1.54818,-0.3364 4.19759,-0.6055 11.34785,-3.208 15.6043,-5.6796 1.39285,-0.8087 2.05155,-1.187 2.84674,-1.6345 6.56938,-3.6972 13.6939,-11.9001 17.83215,-20.5314 0.72287,-1.5077 1.71011,-3.8265 2.19387,-5.1527 1.13438,-3.1101 2.18117,-7.4572 1.99729,-8.2944 -0.0976,-0.4443 -0.0675,-0.5849 0.10257,-0.4798 0.16626,0.1028 0.20791,-0.032 0.13482,-0.4347 -0.0582,-0.3208 0.01,-0.7225 0.15096,-0.8926 0.16502,-0.1987 0.26714,-1.1829 0.28582,-2.7547 0.016,-1.345 0.14499,-2.8724 0.2867,-3.3943 0.18071,-0.6656 0.21853,-1.9249 0.12668,-4.2174 -0.16932,-4.2257 -0.31216,-5.4693 -0.62,-5.3977 -0.1343,0.031 -0.17301,0.017 -0.086,-0.032 0.26252,-0.1468 0.1866,-0.7263 -0.47974,-3.6614 -0.80652,-3.5525 -1.06721,-4.4186 -1.28882,-4.2816 -0.0974,0.06 -0.12533,-0.026 -0.062,-0.1906 0.0633,-0.1651 -0.036,-0.4513 -0.22081,-0.6361 -0.18478,-0.1847 -0.33371,-0.4105 -0.33096,-0.5016 0.0139,-0.4587 -0.26667,-0.9037 -0.56968,-0.9037 -0.45164,0 -3.46336,0.8163 -3.81613,1.0343 -0.21407,0.1323 -0.003,0.7658 0.92849,2.7842 2.25295,4.8829 2.79649,6.2881 3.96534,10.2514 1.0923,3.7037 1.7704,7.1237 1.85117,9.3365 0.019,0.5219 -0.11477,1.6606 -0.29737,2.5305 -0.18261,0.8698 -0.28452,1.8662 -0.22647,2.2141 0.0843,0.5052 0.0572,0.5689 -0.13463,0.3163 -0.18825,-0.2479 -0.21185,-0.1568 -0.10915,0.4217 0.10173,0.5731 0.0782,0.6674 -0.10543,0.4218 -0.18359,-0.2456 -0.20717,-0.1513 -0.10544,0.4217 0.1027,0.5785 0.0791,0.6697 -0.10914,0.4218 -0.19428,-0.2559 -0.22269,-0.2068 -0.1487,0.2572 0.0503,0.3154 0.0203,0.5294 -0.0668,0.4756 -0.17256,-0.1066 -0.25705,0.069 -0.85883,1.7839 -0.31775,0.9055 -0.3464,1.1863 -0.1365,1.3378 0.18887,0.1363 0.16262,0.1588 -0.0908,0.078 -0.26699,-0.085 -0.41964,0.082 -0.60828,0.6654 -0.7877,2.4375 -3.17744,6.5764 -6.02542,10.4356 -0.62667,0.8492 -5.36855,5.2463 -7.13808,6.619 -6.60849,5.1267 -11.89506,7.2363 -20.54461,8.1983 -3.74275,0.4163 -12.43821,0.088 -13.14229,-0.4967 -0.22367,-0.1856 -0.35655,-0.1821 -0.55465,0.015 -0.20617,0.2046 -0.23269,0.1854 -0.1271,-0.092 0.42518,-1.1174 -3.90202,-11.8798 -7.70147,-19.1548 -0.3937,-0.7539 -0.72441,-1.4181 -0.7349,-1.4761 -0.0625,-0.3458 -0.78124,-1.4761 -0.93853,-1.4761 -0.10355,0 -0.55184,0.3221 -0.99621,0.7158 -0.44437,0.3936 -1.43693,1.2239 -2.20567,1.8451 -0.76875,0.6211 -2.82546,2.3154 -4.57046,3.7652 -4.595,3.8174 -6.83331,5.5007 -10.88472,8.1854 -3.26828,2.1657 -8.23462,4.8884 -8.91681,4.8884 -0.14994,0 -0.27262,0.095 -0.27262,0.2109 0,0.116 -0.14233,0.2109 -0.3163,0.2109 -0.52399,0 -0.35614,-0.4156 0.26359,-0.6526 1.88964,-0.7226 5.64831,-2.7744 8.46072,-4.6184 4.5708,-2.997 9.12205,-6.5072 15.31152,-11.8094 1.82772,-1.5657 3.51692,-3.0013 3.75378,-3.1901 0.42946,-0.3424 0.42872,-0.3468 -0.26268,-1.5815 -1.5266,-2.7262 -6.05935,-9.8699 -7.96963,-12.5602 l -0.70257,-0.9895 -2.67956,0.9574 c -1.47375,0.5266 -6.07425,2.1322 -10.22332,3.568 -7.61181,2.6341 -12.38536,4.4493 -17.09158,6.4993 -1.41172,0.615 -2.94606,1.2548 -3.40964,1.4219 -0.65891,0.2374 -0.87209,0.4399 -0.97668,0.9278 -0.0736,0.3432 -0.14502,0.4934 -0.15874,0.3336 -0.0137,-0.1597 -0.30995,-0.8714 -0.65828,-1.5815 -1.67287,-3.4103 -3.25276,-13.6809 -2.72869,-17.7389 0.0899,-0.6958 0.1714,-1.9542 0.18119,-2.7962 0.0236,-2.0323 0.66451,-6.0671 1.57024,-9.8857 1.45883,-6.1505 4.70507,-12.8674 9.02222,-18.668 2.15034,-2.8893 6.98978,-7.9414 9.52498,-9.9436 3.39728,-2.683 7.93387,-5.3827 11.86997,-7.0637 6.16168,-2.6314 9.62833,-3.4595 18.32265,-4.3772 6.70843,-0.708 18.36514,1.1589 23.30103,3.7318 0.86983,0.4534 1.96108,0.916 2.42499,1.028 0.96717,0.2335 4.96762,2.409 7.90759,4.3003 3.32776,2.1408 7.08465,5.3042 7.7102,6.4923 0.16318,0.3099 0.85173,0.9995 1.53011,1.5325 1.72041,1.3516 4.13951,4.388 6.57165,8.2485 1.85051,2.9373 4.30181,7.9503 4.72398,9.6608 0.19667,0.7968 0.64193,1.9951 0.98944,2.6629 1.53651,2.9522 3.14233,12.1904 2.86795,16.4991 -0.55353,8.6926 -0.75729,10.2357 -1.93724,14.6709 -3.43351,12.906 -12.61765,25.2006 -23.77269,31.8239 -2.89378,1.7181 -6.76502,3.6903 -8.29711,4.2267 -0.68533,0.24 -2.07488,0.7253 -3.0879,1.0784 -2.26352,0.789 -5.36068,1.5502 -8.7016,2.1387 -1.92345,0.3389 -3.64321,0.4631 -7.16955,0.518 -2.55151,0.04 -4.92379,0.032 -5.27172,-0.017 z m 20.13799,-12.552 c 1.21777,-0.1174 3.21048,-0.4044 4.42825,-0.6378 2.39295,-0.4587 7.0387,-1.8883 7.69448,-2.3678 0.48377,-0.3538 0.57384,-0.1123 -2.21644,-5.9434 -4.51136,-9.4279 -11.56318,-21.9184 -18.86333,-33.4114 -3.09572,-4.8738 -10.44239,-15.9595 -12.64704,-19.0837 -1.06395,-1.5077 -2.82376,-4.0223 -3.91067,-5.588 -1.08692,-1.5657 -2.3726,-3.3686 -2.85707,-4.0065 -0.48447,-0.6379 -1.71876,-2.2985 -2.74287,-3.6902 -2.30566,-3.1334 -5.35846,-6.8533 -5.62422,-6.8533 -0.1092,0 -0.76968,0.6131 -1.46773,1.3625 -4.83095,5.1859 -9.37149,13.3639 -11.12694,20.0407 l -0.38809,1.4761 1.71796,1.7946 c 9.33074,9.747 16.27884,18.8889 23.52344,30.951 1.65673,2.7584 7.04307,13.7168 8.33215,16.9517 0.53974,1.3544 1.44942,3.8162 2.02151,5.4707 0.59108,1.7094 1.19027,3.0921 1.38785,3.2027 0.47243,0.2643 6.98232,0.7173 8.94312,0.6223 0.86983,-0.042 2.57787,-0.1728 3.79564,-0.2902 z m 16.02605,-4.9899 c 3.22545,-2.0096 9.37313,-7.1411 9.44642,-7.885 0.0152,-0.1541 0.191,-1.1342 0.39073,-2.178 0.44855,-2.3443 0.50745,-8.7532 0.10755,-11.7032 -1.12896,-8.3281 -2.95174,-14.1066 -6.98425,-22.1413 -4.77242,-9.5089 -11.53074,-18.7533 -19.1195,-26.1526 -1.60853,-1.5684 -3.5273,-3.3239 -4.26393,-3.9011 -0.73663,-0.5772 -1.82788,-1.4347 -2.42499,-1.9057 -2.28807,-1.8044 -8.91995,-6.2079 -9.34956,-6.2079 -0.0638,0 -0.99865,-0.4265 -2.07749,-0.9477 -2.6238,-1.2678 -4.66823,-1.7638 -5.74003,-1.3925 -2.84066,0.9839 -9.28299,4.7369 -11.32357,6.5967 l -1.04635,0.9536 1.69016,1.9813 c 0.92959,1.0898 2.39005,2.9303 3.24548,4.0901 0.85542,1.1598 2.0456,2.773 2.64483,3.5848 1.45728,1.9743 2.96455,4.098 5.16336,7.275 1.00337,1.4497 2.30145,3.3213 2.88464,4.1592 0.58318,0.8378 1.12903,1.4546 1.21299,1.3706 0.084,-0.084 0.13351,-0.058 0.11011,0.058 -0.0982,0.4867 0.0483,0.7649 0.79643,1.513 0.43396,0.434 0.66355,0.7115 0.5102,0.6167 -0.15336,-0.095 -0.0595,0.1622 0.20847,0.5711 0.26802,0.4088 0.57499,0.6892 0.68216,0.6229 0.10718,-0.066 0.13816,-0.029 0.0688,0.083 -0.17086,0.2765 0.57426,1.3821 0.79585,1.1809 0.0968,-0.088 0.10809,-0.042 0.025,0.1028 -0.0896,0.1558 0.0896,0.4915 0.44065,0.8253 0.32546,0.3094 0.44942,0.4914 0.27545,0.4043 -0.17396,-0.087 -0.0791,0.048 0.21087,0.3001 0.28995,0.2521 0.38484,0.3945 0.21087,0.3164 -0.17397,-0.078 -0.0791,0.064 0.21087,0.3163 0.28994,0.252 0.38484,0.3956 0.21087,0.3189 -0.20908,-0.092 -0.19233,-0.038 0.0494,0.1607 0.20116,0.1651 0.32626,0.3396 0.27801,0.3878 -0.0483,0.048 0.10379,0.3236 0.33788,0.6118 0.23408,0.2882 0.36289,0.3817 0.28624,0.2077 -0.0767,-0.174 0.0121,-0.1292 0.19722,0.099 0.18513,0.2286 0.29176,0.5325 0.23696,0.6753 -0.0548,0.1428 0.15661,0.461 0.4698,0.7071 0.31319,0.246 0.42711,0.3846 0.25314,0.3079 -0.17397,-0.077 -0.0791,0.067 0.21087,0.319 0.28994,0.2521 0.39909,0.3912 0.24255,0.3092 -0.2227,-0.1168 -0.23753,-0.063 -0.0682,0.2452 0.25168,0.4587 0.97645,1.3667 0.77772,0.9744 -0.23193,-0.4579 0.076,-0.2848 0.32673,0.1836 0.19069,0.3563 0.18376,0.4128 -0.0341,0.2782 -0.37284,-0.2304 0.6129,1.1828 1.16148,1.6652 0.24226,0.213 0.32186,0.326 0.17688,0.2511 -0.4449,-0.2298 -0.29369,0.091 0.31631,0.6713 0.31894,0.3034 0.45427,0.4787 0.30073,0.3896 -0.22936,-0.1331 -0.23123,-0.085 -0.0105,0.2682 0.14776,0.2366 0.36827,0.3737 0.49003,0.3046 0.12176,-0.069 0.15399,-0.051 0.0716,0.04 -0.14782,0.1638 0.37142,1.3777 0.58934,1.3777 0.0619,0 0.0448,-0.1096 -0.038,-0.2435 -0.0911,-0.1474 -0.0581,-0.1863 0.0838,-0.099 0.12883,0.08 0.18447,0.2745 0.12364,0.433 -0.0608,0.1586 0.005,0.36 0.14722,0.4476 0.17574,0.1086 0.20351,0.072 0.0872,-0.1167 -0.11373,-0.184 -0.0883,-0.2252 0.0763,-0.1234 0.13579,0.084 0.18425,0.2539 0.10769,0.3778 -0.0766,0.1239 0.088,0.4102 0.36559,0.6363 0.27763,0.2261 0.3725,0.3414 0.21084,0.2562 -0.20766,-0.1095 -0.18083,0.036 0.0914,0.4974 0.21195,0.3588 0.46519,0.603 0.56276,0.5427 0.0976,-0.06 0.15625,-0.031 0.1304,0.064 -0.0821,0.3035 0.27107,1.133 0.43833,1.0296 0.0883,-0.054 0.16054,0.024 0.16054,0.1751 0,0.3514 1.52464,2.8702 1.73736,2.8702 0.0882,0 0.16144,0.1186 0.16263,0.2636 0.001,0.1449 0.3896,0.8944 0.86314,1.6653 0.47353,0.771 2.2579,3.855 3.96527,6.8533 1.70737,2.9983 3.20887,5.5212 3.33667,5.6064 0.1278,0.085 0.1596,0.1563 0.0707,0.1581 -0.24789,0.01 0.87608,2.1119 1.12661,2.1119 0.12087,0 0.16112,0.095 0.0894,0.2109 -0.0717,0.116 -0.0242,0.2109 0.10544,0.2109 0.12966,0 0.17711,0.095 0.10543,0.2109 -0.0717,0.1159 -0.0332,0.2108 0.0856,0.2108 0.11874,0 0.32359,0.2013 0.45522,0.4472 0.18173,0.3396 0.17977,0.4104 -0.008,0.2943 -0.13609,-0.084 -0.0487,0.2365 0.19412,0.7125 0.24286,0.4761 0.49267,0.8656 0.55515,0.8656 0.0625,0 0.0535,-0.1186 -0.0199,-0.2636 -0.0734,-0.145 0.0179,-0.077 0.20308,0.1521 0.18512,0.2286 0.28814,0.542 0.22892,0.6963 -0.0592,0.1543 -0.0139,0.2226 0.10078,0.1517 0.19178,-0.1185 0.22881,-0.035 0.29612,0.6679 0.0545,0.5693 1.47815,3.2041 1.66786,3.0869 0.1141,-0.071 0.14684,-0.03 0.0727,0.09 -0.0741,0.1199 0.51252,1.6291 1.30359,3.3538 0.79108,1.7247 1.49913,3.304 1.57346,3.5096 0.12623,0.3492 0.1876,0.352 0.93066,0.042 0.43755,-0.1827 1.50721,-0.7757 2.37705,-1.3176 z m 13.25538,-12.488 c 3.38841,-5.0318 5.68436,-10.9506 6.91365,-17.8231 0.18239,-1.0197 -0.70702,-5.8251 -1.75544,-9.4844 -1.0049,-3.5075 -1.97234,-6.1194 -3.39759,-9.1728 -0.46015,-0.9858 -1.18901,-2.5472 -1.61969,-3.4696 -0.43068,-0.9225 -1.05898,-2.0783 -1.39622,-2.5685 -0.33724,-0.4901 -0.61316,-0.9369 -0.61316,-0.9928 0,-0.093 -2.32546,-3.8652 -5.39994,-8.7585 -1.21563,-1.9349 -6.30923,-8.1625 -8.73077,-10.6747 -1.3797,-1.4313 -7.3163,-7.2006 -7.79967,-7.5798 -0.17397,-0.1365 -0.79076,-0.6313 -1.37065,-1.0996 -1.79169,-1.4469 -3.54548,-1.9046 -9.48911,-2.4763 -4.78289,-0.4601 -11.63002,0.041 -15.24881,1.1156 l -1.96406,0.5833 1.22602,0.2721 c 1.67642,0.3722 7.62146,3.4443 10.71513,5.5371 13.64665,9.2317 25.55157,24.0928 32.7089,40.831 4.03826,9.444 5.60797,21.953 3.75915,29.9567 -0.1731,0.7494 1.48683,-1.2622 3.46226,-4.1957 z m -95.178,-8.0983 c 5.68219,-2.5554 11.52846,-4.9573 14.9717,-6.151 1.27576,-0.4423 2.367,-0.8569 2.42499,-0.9214 0.058,-0.065 0.20033,-0.1202 0.31631,-0.1238 0.57406,-0.018 1.57261,-0.3645 1.48019,-0.514 -0.0577,-0.093 0.0126,-0.1657 0.15631,-0.1605 0.83588,0.03 1.22273,-0.077 1.08466,-0.3005 -0.0843,-0.1363 -0.0587,-0.1867 0.0582,-0.1145 0.26847,0.1659 1.75433,-0.2858 1.75433,-0.5333 0,-0.1034 0.0954,-0.129 0.2121,-0.057 0.30545,0.1888 1.68798,-0.3537 1.53447,-0.6021 -0.0757,-0.1224 0.0158,-0.1529 0.2221,-0.074 0.41949,0.161 1.02579,-0.035 0.87306,-0.282 -0.0594,-0.096 0.15708,-0.1672 0.4811,-0.158 0.79376,0.023 2.16891,-0.4919 2.00851,-0.7515 -0.0758,-0.1227 0.0162,-0.1527 0.22393,-0.073 0.194,0.074 0.61285,0.029 0.93078,-0.102 0.31794,-0.1306 0.67295,-0.2628 0.78893,-0.2939 1.04806,-0.2807 3.1655,-1.1513 3.22352,-1.3253 0.10803,-0.3241 -0.83074,-1.5105 -1.07551,-1.3592 -0.11809,0.073 -0.1441,0.023 -0.0594,-0.1138 0.0828,-0.1339 0.0444,-0.2434 -0.0853,-0.2434 -0.12967,0 -0.17802,-0.093 -0.10744,-0.2076 0.0706,-0.1142 -0.18478,-0.409 -0.56745,-0.6551 -0.38267,-0.246 -0.50598,-0.3896 -0.27402,-0.319 0.41542,0.1265 0.41561,0.1236 0.0124,-0.1884 -0.22514,-0.1743 -0.33213,-0.3169 -0.23777,-0.3169 0.0944,0 0.0543,-0.1412 -0.089,-0.3139 -0.14332,-0.1727 -0.35938,-0.253 -0.48014,-0.1783 -0.13037,0.08 -0.15612,0.033 -0.0634,-0.117 0.18293,-0.296 -0.26268,-0.916 -0.53663,-0.7466 -0.10284,0.063 -0.19884,0.015 -0.21334,-0.1078 -0.0145,-0.1228 -0.0501,-0.3182 -0.0791,-0.4342 -0.029,-0.116 -0.0646,-0.2699 -0.0791,-0.3421 -0.0145,-0.072 -0.16025,-0.02 -0.32389,0.1157 -0.38588,0.3202 -0.68108,-0.095 -0.35063,-0.4929 0.17371,-0.2093 0.1387,-0.352 -0.14,-0.5706 -0.34526,-0.2709 -0.34918,-0.2617 -0.0553,0.1301 0.29524,0.3937 0.29109,0.402 -0.0623,0.1244 -0.20824,-0.1635 -0.33325,-0.4156 -0.27781,-0.5601 0.11315,-0.2948 -0.57119,-0.9946 -1.03995,-1.0634 -0.470162,1.69168 -0.30822,0.4142 -0.39423,-0.1393 0.15775,-0.4971 0.092,-0.7178 -0.18624,-0.6251 -0.0925,0.031 -0.13994,-0.1115 -0.10544,-0.3163 0.0445,-0.2639 -0.0531,-0.3524 -0.33492,-0.3038 -0.28328,0.049 -0.36218,-0.024 -0.27433,-0.2528 0.0804,-0.2097 0.0265,-0.2843 -0.15503,-0.2146 -0.393884,-0.32669 -0.668518,-0.86271 -0.79573,-1.3126 -0.3072,-0.2694 -0.40238,-0.2954 -0.29569,-0.081 0.0865,0.174 0.011,0.1363 -0.16787,-0.084 -0.17885,-0.22 -0.27923,-0.4744 -0.22307,-0.5653 0.0562,-0.091 -0.009,-0.2339 -0.14477,-0.3178 -0.15419,-0.095 -0.1904,-0.061 -0.0964,0.091 0.0828,0.1339 0.05,0.2435 -0.0728,0.2435 -0.19681,0 -0.30294,-0.2683 -0.25871,-0.6541 0.008,-0.07 -0.33247,-0.4493 -0.7566,-0.8435 -0.42414,-0.3941 -0.65207,-0.5589 -0.50652,-0.3663 0.18381,0.2433 0.19551,0.393 0.0383,0.4901 -0.12449,0.077 -0.20383,0.062 -0.17631,-0.034 0.0275,-0.096 -0.0684,-0.3873 -0.21307,-0.6483 -0.14469,-0.2609 -0.18858,-0.4745 -0.0975,-0.4746 0.0911,0 -0.31993,-0.4982 -0.91332,-1.107 -0.59339,-0.6088 -1.76382,-1.8341 -2.60095,-2.7228 -0.83713,-0.8887 -1.75072,-1.6732 -2.03019,-1.7434 -0.54034,-0.1356 -0.58203,-0.4477 -0.12521,-0.9373 0.15397,-0.165 0.23521,-0.4711 0.18053,-0.6802 -0.0547,-0.2091 -0.0126,-0.4092 0.0935,-0.4445 0.10613,-0.035 0.21467,-0.3719 0.24121,-0.7478 0.0265,-0.3758 0.11941,-0.6836 0.20639,-0.6838 0.087,-2e-4 0.15816,-0.1483 0.15816,-0.329 0,-0.5961 2.32239,-6.0598 3.58775,-8.4405 0.68332,-1.2857 1.66899,-2.987 2.19036,-3.7807 0.52137,-0.7937 0.89834,-1.5233 0.83771,-1.6214 -0.0606,-0.098 0.0154,-0.1523 0.16903,-0.1204 0.15503,0.032 0.26623,-0.1062 0.24997,-0.3111 -0.0161,-0.203 0.0469,-0.369 0.14,-0.369 0.0931,0 0.67563,-0.637 1.2945,-1.4155 0.61887,-0.7785 1.35009,-1.6563 1.62494,-1.9505 0.27485,-0.2943 0.72395,-0.8266 0.99799,-1.1828 0.27405,-0.3563 0.75578,-0.7833 1.07052,-0.949 0.31473,-0.1656 0.81454,-0.5249 1.11069,-0.7984 3.13627,-2.8964 10.0647,-6.7073 14.45582,-7.9513 0.69586,-0.1971 1.31265,-0.417 1.37064,-0.4886 0.058,-0.072 0.29522,-0.1539 0.52718,-0.1828 0.23195,-0.029 1.13342,-0.1521 2.00325,-0.2739 5.95866,-0.8337 9.63276,-0.8498 15.55329,-0.068 4.91419,0.6486 5.80278,1.1387 10.56901,5.829 1.08778,1.0704 1.91279,1.8281 1.83334,1.6838 -0.61624,-1.1198 8.93775,9.5314 9.71247,10.8279 0.13137,0.2198 0.28091,0.3523 0.33231,0.2943 0.36663,-0.4137 1.60263,-3.4445 1.50666,-3.6946 -0.0658,-0.1716 -0.01,-0.3119 0.12445,-0.3119 0.15658,0 0.21648,-0.2969 0.16702,-0.8276 -0.081,-0.8691 -0.49443,-1.5678 -0.81167,-1.3718 -0.10284,0.064 -0.18697,-0.041 -0.18697,-0.2333 0,-0.5105 -0.83748,-1.6024 -1.10306,-1.4383 -0.12992,0.08 -0.16671,0.042 -0.0859,-0.088 0.0778,-0.1259 0.045,-0.2885 -0.0729,-0.3613 -0.11787,-0.073 -0.21431,-0.02 -0.21431,0.1167 0,0.1822 -0.0876,0.1764 -0.32628,-0.022 -0.2238,-0.1857 -0.25297,-0.3161 -0.0929,-0.415 0.14908,-0.092 0.0574,-0.2635 -0.2536,-0.4741 -0.26787,-0.1815 -0.78351,-0.5994 -1.14586,-0.9287 -0.36235,-0.3294 -0.9136,-0.7825 -1.225,-1.0068 -0.3114,-0.2244 -0.8215,-0.6276 -1.13356,-0.896 -0.31207,-0.2684 -0.63856,-0.4881 -0.72554,-0.4882 -0.087,-2e-4 -0.20294,0 -0.25767,-0.01 -0.0547,0 -0.40383,-0.2844 -0.77576,-0.6241 -0.37194,-0.3397 -0.94383,-0.6764 -1.27087,-0.7483 -0.32705,-0.072 -0.71336,-0.2934 -0.85848,-0.4925 -0.14511,-0.1991 -0.59596,-0.5207 -1.00189,-0.7148 -0.40592,-0.194 -1.02271,-0.5449 -1.37064,-0.7797 -0.68304,-0.461 -1.05234,-0.5568 -0.84348,-0.2188 0.0717,0.1159 0.0197,0.2108 -0.11555,0.2108 -0.13535,0 -0.18955,-0.1468 -0.12057,-0.3265 0.0928,-0.2419 -0.21557,-0.4878 -1.18994,-0.9488 -4.88802,-2.84976 -1.98999,-0.61948 -3.88328,-1.5492 -2.31665,-1.3508 -7.05337,-2.5872 -13.14171,-3.4304 -4.66701,-0.6464 -11.62354,-0.4026 -15.70975,0.5504 -2.51301,0.5862 -3.82025,0.9428 -4.02591,1.0984 -0.12665,0.096 -0.28349,0.121 -0.34855,0.056 -0.065,-0.065 -0.57822,0.072 -1.14037,0.3038 -0.56216,0.2321 -1.92357,0.7745 -3.02536,1.2054 -1.94555,0.761 -5.38322,2.451 -5.78836,2.8458 -0.11018,0.1074 -0.37032,0.1952 -0.5781,0.1952 -0.20778,0 -0.49039,0.1803 -0.62802,0.4007 -0.13763,0.2204 -0.37566,0.3526 -0.52896,0.2938 -0.15329,-0.059 -0.27872,-0.01 -0.27872,0.1129 0,0.121 -0.37466,0.4305 -0.83257,0.6879 -0.45792,0.2574 -0.81376,0.5592 -0.79076,0.6708 0.023,0.1116 -0.14797,0.2342 -0.37992,0.2725 -0.23196,0.038 -0.61509,0.3118 -0.8514,0.6079 -0.23631,0.2961 -0.52099,0.5415 -0.63261,0.5453 -0.34792,0.012 -1.19021,0.8147 -1.06593,1.0158 0.065,0.1051 -0.14131,0.2468 -0.45837,0.3149 -0.78024,0.1676 -4.37977,3.5804 -4.15679,3.9412 0.10528,0.1704 0.0816,0.2166 -0.0646,0.1262 -0.25798,-0.1594 -1.35676,1.1082 -1.43752,1.6585 -0.0659,0.4489 -0.69868,1.1576 -0.98146,1.0992 -0.31585,-0.065 -1.63371,1.7111 -1.50954,2.0347 0.0583,0.1521 -0.0982,0.5056 -0.34781,0.7856 l -0.45389,0.5093 0.35608,-0.5982 c 0.19584,-0.329 0.31363,-0.6407 0.26175,-0.6925 -0.17133,-0.1714 -2.5972,3.5646 -4.05573,6.2461 -2.66921,4.9072 -3.63981,7.3472 -5.07477,12.7576 -1.2424,4.6843 -1.72519,7.952 -1.11959,7.5777 0.34956,-0.216 -0.48517,1.0133 -0.97069,1.4296 -0.23201,0.1989 -0.71323,0.5037 -1.06938,0.6772 -0.35615,0.1736 -0.97294,0.5999 -1.37065,0.9473 l -0.7231,0.6316 0.0265,4.1737 c 0.0278,4.3737 0.47848,7.8149 1.56878,11.9775 0.48329,1.8452 1.23601,3.7453 1.43894,3.6325 0.0709,-0.039 0.50839,-0.2423 0.97231,-0.451 z m 30.52329,-14.6135 c -0.26095,-0.05 -0.47446,-0.1708 -0.47446,-0.2678 0,-0.2176 0.80676,-0.024 0.96465,0.2312 0.063,0.102 0.0853,0.1725 0.0494,0.1567 -0.0358,-0.016 -0.27867,-0.07 -0.53962,-0.1201 z m -3.42339,-4.8418 c -0.002,-0.2513 -0.12185,-0.4993 -0.26682,-0.5511 -0.14497,-0.052 -0.20765,-0.1551 -0.13929,-0.2297 0.24503,-0.2673 0.81268,0.5998 0.60631,0.9262 -0.15747,0.249 -0.19762,0.2198 -0.2002,-0.1454 z m -4.97896,-5.7215 c 0.0266,-0.3602 0.4104,-0.3637 0.50554,0 0.056,0.2113 0.024,0.2077 -0.13152,-0.015 -0.17586,-0.2517 -0.21921,-0.2517 -0.29994,0 -0.0637,0.1984 -0.0878,0.2047 -0.0741,0.02 z m -16.44783,-1.2105 c 0.0437,-0.298 1.58185,-1.4127 3.5179,-2.5495 0.41593,-0.2442 1.02905,-0.6225 1.36249,-0.8405 0.40025,-0.2618 0.54352,-0.2948 0.42166,-0.097 -0.14289,0.2318 -0.0934,0.2674 0.21902,0.1576 0.37886,-0.1331 0.37775,-0.1214 -0.0181,0.1904 -0.89911,0.7081 -2.9703,1.8441 -3.32575,1.8241 -0.20547,-0.012 -0.32058,0.065 -0.25581,0.1696 0.0992,0.1604 -0.42003,0.5605 -1.72438,1.3285 -0.14811,0.087 -0.22606,0.015 -0.19701,-0.1831 z m 1.06264,-0.5389 c 0.41255,-0.2434 0.7501,-0.4831 0.7501,-0.5326 0,-0.094 -0.92655,0.3792 -1.47609,0.7534 -0.57822,0.3937 -0.0359,0.2288 0.72599,-0.2208 z m 3.12237,-1.9676 c 0.5509,-0.3201 1.00163,-0.626 1.00163,-0.6796 0,-0.1429 -2.02926,1.0201 -2.58343,1.4806 l -0.47417,0.394 0.52717,-0.3064 c 0.28995,-0.1686 0.97791,-0.5684 1.5288,-0.8886 z m 10.47939,1.1977 -0.72669,-0.7908 0.79076,0.7267 c 0.73602,0.6764 0.88771,0.8549 0.72669,0.8549 -0.0352,0 -0.39108,-0.3559 -0.79076,-0.7908 z m -8.52553,-2.5778 c -0.16626,-0.269 0.17904,-0.4293 0.49889,-0.2317 0.21184,0.131 0.19957,0.1951 -0.056,0.2932 -0.17997,0.069 -0.37926,0.041 -0.44285,-0.062 z m 1.07275,-0.6028 c -0.0597,-0.097 0.0254,-0.1757 0.18915,-0.1757 0.16376,0 0.24888,0.079 0.18914,0.1757 -0.0597,0.097 -0.14484,0.1757 -0.18914,0.1757 -0.0443,0 -0.12942,-0.079 -0.18915,-0.1757 z m 0.7968,-0.7081 c -0.0615,-0.1 -0.0336,-0.1674 0.062,-0.1508 0.39044,0.068 0.71952,-0.03 0.62349,-0.1854 -0.0563,-0.091 0.0756,-0.1657 0.29316,-0.1657 0.37147,0 0.37374,0.021 0.0372,0.341 -0.39217,0.3732 -0.84075,0.4442 -1.01588,0.1609 z m -11.25008,-2.1738 c 0,-0.116 0.092,-0.3532 0.20441,-0.5272 0.11243,-0.1739 0.20441,-0.2214 0.20441,-0.1054 0,0.116 -0.092,0.3532 -0.20441,0.5272 -0.11243,0.1739 -0.20441,0.2214 -0.20441,0.1054 z m 1.30394,-3.5524 c 0.13004,-0.4237 0.31338,-0.7704 0.40741,-0.7704 0.094,0 0.0601,0.2609 -0.0754,0.5799 -0.39075,0.9196 -0.59102,1.0345 -0.33198,0.1905 z m 0.58742,-1.3141 c 0,-0.2475 1.5218,-3.2765 1.60459,-3.1937 0.10057,0.1005 -1.3593,3.3157 -1.50554,3.3157 -0.0545,0 -0.0991,-0.055 -0.0991,-0.122 z m 2.11481,-4.2721 c 0.26984,-0.4801 0.52819,-0.8354 0.57411,-0.7895 0.12256,0.1226 -0.53633,1.3359 -0.82099,1.5118 -0.13407,0.083 -0.023,-0.2422 0.24688,-0.7223 z m 0.85231,-1.6075 c 0.27261,-0.4961 1.03898,-1.4222 1.03372,-1.2491 -0.003,0.1026 -0.26407,0.4749 -0.57989,0.8274 -0.31582,0.3524 -0.52004,0.5422 -0.45383,0.4217 z m 1.50408,-2.4236 c 0.14156,-0.2267 0.28694,-0.3826 0.32305,-0.3465 0.125,0.125 -0.20103,0.7586 -0.39035,0.7586 -0.10455,0 -0.0743,-0.1854 0.0673,-0.4121 z m 2.64212,-3.8314 c 0.14304,-0.1441 0.31319,-0.2089 0.37811,-0.144 0.0649,0.065 -0.0521,0.1828 -0.26007,0.262 -0.30053,0.1145 -0.32475,0.09 -0.11804,-0.118 z m 57.62058,-14.7237 c -0.17556,-0.1029 -0.60257,-0.2224 -0.94891,-0.2657 -0.34634,-0.043 -0.83074,-0.1901 -1.07644,-0.3263 -0.2457,-0.1362 -0.50665,-0.1877 -0.57989,-0.1145 -0.0732,0.073 -0.13316,0.024 -0.13316,-0.1087 0,-0.1564 0.24233,-0.2005 0.68532,-0.1247 0.37693,0.064 0.89883,0.1337 1.15978,0.154 0.26095,0.02 0.47446,0.108 0.47446,0.195 0,0.087 0.13072,0.1582 0.29048,0.1582 0.15977,0 0.40862,0.1423 0.553,0.3163 0.2893,0.3486 0.0728,0.4079 -0.42464,0.1164 z m -4.10905,-1.0617 c -0.46391,-0.085 -1.0807,-0.2655 -1.37065,-0.4013 l -0.52717,-0.2468 0.52717,0.1223 c 0.28995,0.067 0.88533,0.1777 1.32307,0.2453 0.43775,0.068 0.84664,0.205 0.90864,0.3053 0.062,0.1004 0.0834,0.1706 0.0476,0.156 -0.0358,-0.014 -0.44473,-0.096 -0.90864,-0.1808 z m -3.36035,-0.7853 c -0.11443,-0.3005 -0.0902,-0.3247 0.11805,-0.118 0.14411,0.143 0.2089,0.3132 0.14397,0.3781 -0.0649,0.065 -0.18283,-0.052 -0.26202,-0.2601 z m -64.84981,46.8494 c 0.14766,-0.178 0.77988,-0.6287 1.40492,-1.0017 1.21903,-0.7274 1.24613,-0.7833 1.41147,-2.9133 0.11703,-1.5077 1.12875,-5.7545 2.33095,-9.7843 0.81102,-2.7186 4.07188,-9.5763 5.96603,-12.5468 4.12936,-6.4759 9.57171,-12.0345 15.84675,-16.1854 1.85715,-1.2285 6.31737,-3.4674 8.30751,-4.1702 0.902,-0.3185 1.60362,-0.6155 1.55916,-0.66 -0.23872,-0.2387 -7.33733,2.6157 -9.53677,3.8348 -2.38442,1.3216 -6.09727,3.7336 -7.89604,5.1295 -8.03431,6.2347 -15.29266,16.8838 -18.00014,26.4088 -1.0943,3.8497 -2.03242,8.9152 -2.03242,10.9742 0,1.2617 0.16006,1.4909 0.63858,0.9144 z m 102.72883,-13.8048 c 0.45933,0 0.46043,-0.025 0.0678,-1.5323 -0.3952,-1.5173 -2.69181,-6.1249 -4.49146,-9.0111 -1.64027,-2.6306 -4.07795,-5.8608 -5.38792,-7.1397 -1.02628,-1.0019 -0.9853,-1.0207 -1.31241,0.6027 -0.0818,0.406 -0.51589,1.5228 -0.96465,2.4818 -0.44878,0.9591 -0.81595,1.7874 -0.81595,1.8407 0,0.2423 2.0416,3.2656 2.13926,3.168 0.0605,-0.061 0.1114,0.01 0.11311,0.1535 0.002,0.145 0.6615,1.3074 1.4662,2.5832 0.8047,1.2758 1.73695,2.794 2.07166,3.3739 0.33471,0.5799 1.10684,1.8292 1.71583,2.7763 l 1.10726,1.722 1.95556,-0.5095 c 1.07556,-0.2802 2.12663,-0.5095 2.33571,-0.5095 z m -86.8058,-18.082 0.3732,-0.5799 -0.45438,0.4017 c -0.24991,0.221 -0.45438,0.4819 -0.45438,0.5799 0,0.3093 0.15075,0.1962 0.53556,-0.4017 z m 37.05621,88.71 c -0.83843,-0.065 -1.5767,-0.1709 -1.64058,-0.2348 -0.11302,-0.1131 4.78679,0.033 4.91757,0.1465 0.16183,0.1405 -1.89409,0.1959 -3.27699,0.088 z m -4.74892,-0.4596 c -0.66687,-0.1142 -1.2125,-0.2895 -1.2125,-0.3894 0,-0.1 0.26095,-0.1322 0.57989,-0.072 3.20983,0.608 3.50917,0.6833 2.68858,0.6762 -0.46391,0 -1.3891,-0.1007 -2.05597,-0.215 z m -3.82243,-0.6985 c -0.79759,-0.1584 -1.50136,-0.3393 -1.56395,-0.4019 -0.37165,-0.3716 0.45652,-0.2396 3.22497,0.5144 1.02248,0.2784 -0.0638,0.2049 -1.66102,-0.1125 z m -1.39658,-3.5733 c 0.28995,-0.1657 0.39274,-0.3047 0.22844,-0.3088 -0.1643,0 -0.24178,-0.064 -0.17218,-0.134 0.0696,-0.07 0.24213,-0.055 0.38339,0.032 0.18839,0.1164 0.15329,0.2344 -0.1317,0.4428 -0.21371,0.1563 -0.48903,0.2808 -0.61184,0.2766 -0.1228,0 0.0139,-0.143 0.30389,-0.3088 z m 1.12463,-0.6326 c 0,-0.1518 0.12653,-0.2275 0.28116,-0.1682 0.15464,0.059 0.28116,0.135 0.28116,0.1682 0,0.033 -0.12652,0.1089 -0.28116,0.1682 -0.15463,0.059 -0.28116,-0.016 -0.28116,-0.1682 z m 0.59472,-0.2918 c -0.20964,-0.1329 -0.1223,-0.2363 0.33387,-0.3953 0.46897,-0.1635 0.61779,-0.1517 0.61779,0.049 0,0.1574 -0.17749,0.2259 -0.43931,0.1693 -0.35917,-0.078 -0.38161,-0.053 -0.12301,0.1312 0.3735,0.2668 0.0242,0.3081 -0.38934,0.046 z m 1.70129,-0.6238 c -0.19497,-0.1237 -0.1183,-0.2399 0.27702,-0.4201 0.30062,-0.1369 0.49251,-0.1615 0.42641,-0.054 -0.0661,0.1069 -0.001,0.2491 0.14472,0.3159 0.14569,0.067 0.0395,0.065 -0.23597,0 -0.33697,-0.085 -0.45365,-0.05 -0.35657,0.1074 0.17026,0.2754 0.11084,0.2884 -0.25561,0.056 z m 1.46438,-0.6398 c -0.22645,-0.1435 -0.21618,-0.2033 0.0527,-0.3065 0.18369,-0.07 0.49189,-0.067 0.68488,0.01 0.2258,0.087 0.29975,0.052 0.20743,-0.098 -0.0789,-0.1277 -0.0324,-0.3008 0.10343,-0.3847 0.15419,-0.095 0.19039,-0.061 0.0964,0.091 -0.0843,0.1363 -0.0291,0.2448 0.12557,0.2466 0.20037,0 0.18934,0.059 -0.0403,0.2061 -0.17396,0.1115 -0.49424,0.1474 -0.71173,0.08 -0.25772,-0.08 -0.34518,-0.042 -0.25114,0.1103 0.17152,0.2775 0.11105,0.2885 -0.26731,0.049 z m 1.72609,-0.6081 c 0.0766,-0.124 0.0331,-0.2609 -0.0968,-0.3042 -0.12986,-0.043 0.0179,-0.1944 0.32842,-0.3359 0.42173,-0.1921 0.52571,-0.1944 0.41106,-0.01 -0.10457,0.1692 -0.0382,0.204 0.20839,0.1094 0.22273,-0.086 0.31028,-0.055 0.22772,0.078 -0.0738,0.1194 -0.32782,0.1556 -0.56454,0.08 -0.27233,-0.086 -0.38071,-0.056 -0.29511,0.082 0.0744,0.1204 0.0242,0.2876 -0.11161,0.3715 -0.14715,0.091 -0.19061,0.062 -0.10756,-0.073 z m 2.61572,-1.4559 c 0.1457,-0.059 0.21532,-0.187 0.15472,-0.2851 -0.0606,-0.098 8.4e-4,-0.2469 0.1367,-0.3309 0.15419,-0.095 0.1904,-0.061 0.0964,0.091 -0.0843,0.1364 -0.0291,0.2448 0.12557,0.2467 0.20057,0 0.18957,0.059 -0.0403,0.2076 -0.17397,0.1124 -0.4112,0.1984 -0.52718,0.191 -0.11597,-0.01 -0.0917,-0.062 0.054,-0.1202 z m 1.10575,-0.4925 c -0.19005,-0.1229 -0.21606,-0.2057 -0.0652,-0.2077 0.13813,0 0.30979,0.092 0.38147,0.2077 0.1618,0.2618 0.0888,0.2618 -0.31631,0 z m 50.41435,-27.2146 c -0.009,-0.1808 0.13093,-0.5129 0.31129,-0.738 0.32269,-0.4028 0.32483,-0.4026 0.13393,0.012 -0.1067,0.232 -0.24679,0.5641 -0.31129,0.7381 -0.10131,0.2732 -0.11955,0.2715 -0.13393,-0.013 z m 0.40832,-1.5039 c -0.002,-0.1961 0.0917,-0.4152 0.20764,-0.4869 0.26688,-0.1649 0.26688,0.1142 0,0.5272 -0.17616,0.2726 -0.20486,0.267 -0.20764,-0.04 z"
       id="path3817"
       inkscape:connector-curvature="0"
       sodipodi:nodetypes="cccccssssccccccccscccsssccccscccccscccccccsccsccccsccsccscccccccscccscscccccscccssssccscscccsccccsccsssccsssccsccssccsccccsccssssscscscsscsccscccsssscscccccscccccccccccccccccccccccscccccccccccscccscccccccccccccssccsccscscscccssccccccsccccssssccscccsscccsscsccccccccsccccccccccccsccccsccccssccccccccccccccccccccscccccccsscccccsscscccsscccsccccccccscsscscccsccccccccscccccscccsccccccsscssscsccccccccccscsscccccssccccscccccccccccccccccccccccccccscccsccccccsscccccccscsccccscccscscscscccccsccccccccccccscccccccscsccsscccccccccccccccccssssccscsscscscccsccsssccscccscccccccsccccccccccscccccscscsccscccccccccccccccccccccccccccccccccccccccccccccccccccccccccccc" />
    <path
       style="fill:#0000ff;fill-opacity:1;stroke:none"
       d="m 185,992.3622 c -35,5 -65,5 -100,0 0,-27.61426 22.38576,-50.00002 50,-50.00002 27.61424,0 50,22.38576 50,50.00002 z"
       id="path3819"
       inkscape:connector-curvature="0"
       sodipodi:nodetypes="ccsc" />
  </g>
</svg>
